<svg width="20" height="24" viewBox="0 0 20 24" fill="none" xmlns="http://www.w3.org/2000/svg">
<path d="M1 9.59277C1 7.70716 1 6.76435 1.58579 6.17856C2.17157 5.59277 3.11438 5.59277 5 5.59277H6.93407H13.7912H14.8022C16.6878 5.59277 17.6306 5.59277 18.2164 6.17856C18.8022 6.76435 18.8022 7.70716 18.8022 9.59277V19.1312C18.8022 20.8889 18.8022 21.7678 18.2877 22.3385C18.2415 22.3898 18.1926 22.4386 18.1413 22.4849C17.5706 22.9994 16.6917 22.9994 14.9341 22.9994V22.9994H5.79121H5C3.11438 22.9994 2.17157 22.9994 1.58579 22.4136C1 21.8278 1 20.885 1 18.9994V9.59277Z" stroke="white" stroke-width="2" stroke-linejoin="round"/>
<path d="M5.25879 5V5C5.25879 2.79086 7.04965 1 9.25879 1H10.2588C12.4679 1 14.2588 2.79086 14.2588 5V5" stroke="white" stroke-width="2" stroke-linecap="round" stroke-linejoin="round"/>
</svg>
