<svg width="24" height="20" viewBox="0 0 24 20" fill="none" xmlns="http://www.w3.org/2000/svg">
<path d="M6.79289 19.7071C7.18342 20.0976 7.81658 20.0976 8.20711 19.7071L14.5711 13.3431C14.9616 12.9526 14.9616 12.3195 14.5711 11.9289C14.1805 11.5384 13.5474 11.5384 13.1569 11.9289L7.5 17.5858L1.84315 11.9289C1.45262 11.5384 0.819456 11.5384 0.428932 11.9289C0.0384075 12.3195 0.0384075 12.9526 0.428932 13.3431L6.79289 19.7071ZM6.5 -2.87575e-08L6.5 19L8.5 19L8.5 2.87575e-08L6.5 -2.87575e-08Z" fill="white"/>
<path d="M15.7929 0.292893C16.1834 -0.0976311 16.8166 -0.0976311 17.2071 0.292893L23.5711 6.65685C23.9616 7.04738 23.9616 7.68054 23.5711 8.07107C23.1805 8.46159 22.5474 8.46159 22.1569 8.07107L16.5 2.41421L10.8431 8.07107C10.4526 8.46159 9.81946 8.46159 9.42893 8.07107C9.03841 7.68054 9.03841 7.04738 9.42893 6.65685L15.7929 0.292893ZM15.5 20L15.5 1L17.5 1L17.5 20L15.5 20Z" fill="white"/>
</svg>
